# xmcd
#
# Track frame offsets: 
#        150
#        18578
#        37438
#        51451
#        63330
#        77593
#        88805
#        105870
#        119717
#        134462
#        148235
#        166002
#        184381
#        198261
#        218989
#        234203
#        252303
#        268333
#        284534
#        302563
#        323171
#        334164
#
# Disc length: 4681 seconds
#
# Revision: 2
# Processed by: cddbd v1.5.2PL0 Copyright (c) Steve Scherf et al.
# Submitted via: ExactAudioCopy v0.99pb3
#
DISCID=55124716
DTITLE=Various Artist - Ik Hou Van Holland [CD 3)
DYEAR=2008
DGENRE=Nederlandstalig
TTITLE0=Wolter Kroes - Ik Heb De Hele Nacht Liggen Dromen
TTITLE1=Guus Meeuwis - Per Spoor (Kedeng Kedeng)
TTITLE2=Benny Neyman - Vrijgezel
TTITLE3=Karint Kent - Dans Je De Hele Avond Met Mij?
TTITLE4=Roberto Jacketti and The Scooters - I Save The Day
TTITLE5=Johnny Lion - Sophietje
TTITLE6=Doe Maar  - Doris Day
TTITLE7=Conny Vandenbos - Een Roosje, M'n Roosje
TTITLE8=De Gebroeders Ko - Ik heb Een Toeter Op M'n Waterscooter
TTITLE9=Jamai - Step Right Up
TTITLE10=Vanvelzen - Baby Get Higher
TTITLE11=Ruth Jacott - Vrij Met Mij
TTITLE12=Willy and Willeke Alberti - Reisje Langs De Rijn
TTITLE13=Toontje Lager - Zoveel Te Doen
TTITLE14=Centerfold - Dictator
TTITLE15=George Baker Selection - Little Green Bag
TTITLE16=Mannenkoor Karrespoor - Mooi Man
TTITLE17=Adele Bloemendaal - We Zijn Toch Op De Wereld Om Mekaar Te He
TTITLE17=lpen, Nietwaar
TTITLE18=Harry Klorkestein - O, O, Den Haag
TTITLE19=Pussycat - Mississippi
TTITLE20=Herman Emmink - Tulpen Uit Amsterdam
TTITLE21=André Hazes - Zij Gelooft In Mij
EXTD=
EXTT0=
EXTT1=
EXTT2=
EXTT3=
EXTT4=
EXTT5=
EXTT6=
EXTT7=
EXTT8=
EXTT9=
EXTT10=
EXTT11=
EXTT12=
EXTT13=
EXTT14=
EXTT15=
EXTT16=
EXTT17=
EXTT18=
EXTT19=
EXTT20=
EXTT21=
PLAYORDER=
